<?xml version="1.0" encoding="utf-8"?>
<!-- Generator: Adobe Illustrator 22.0.1, SVG Export Plug-In . SVG Version: 6.00 Build 0)  -->
<svg version="1.1" id="Layer_1" xmlns="http://www.w3.org/2000/svg" xmlns:xlink="http://www.w3.org/1999/xlink" x="0px" y="0px"
	 width="237.4px" height="52.6px" viewBox="0 0 237.4 52.6" style="enable-background:new 0 0 237.4 52.6;" xml:space="preserve">
<style type="text/css">
	.st0{opacity:0.7;fill:#33A54F;}
	.st1{opacity:0.7;fill:#4A90CA;}
	.st2{fill:#5F6AAD;}
	.st3{fill:#3C529F;}
	.st4{fill:#8085BD;}
	.st5{fill:#37526C;}
	.st6{fill:url(#SVGID_1_);}
	.st7{fill:#3C539F;}
	.st8{opacity:0.7;fill:#EB4A5D;}
	.st9{fill:#D8D8D8;}
	.st10{opacity:0.7;}
</style>
<path class="st0" d="M189.4,8.8L189.4,8.8c-0.7,0-1.2,0.5-1.2,1.2v16c0,0.7,0.5,1.2,1.2,1.2l0,0c0.7,0,1.2-0.5,1.2-1.2v-16
	C190.6,9.3,190.1,8.8,189.4,8.8z"/>
<path class="st1" d="M190.6,25.9l-2.4-3.3L177.1,9.2c0,0,0,0-0.1,0c0,0-0.1-0.1-0.1-0.1c-0.1-0.1-0.1-0.1-0.2-0.1
	c-0.1,0-0.1,0-0.2-0.1c-0.1,0-0.2,0-0.3-0.1c0,0,0,0-0.1,0c-0.1,0-0.1,0-0.2,0c-0.1,0-0.1,0-0.2,0c-0.1,0-0.2,0.1-0.3,0.1
	c0,0-0.1,0-0.1,0.1c0,0,0,0,0,0c-0.1,0.1-0.1,0.2-0.2,0.3c0,0-0.1,0.1-0.1,0.1c0,0.1-0.1,0.2-0.1,0.3c0,0.1,0,0.1,0,0.2
	c0,0,0,0,0,0.1l2.4,3.3l11.2,13.5c0.4,0.5,1.2,0.6,1.7,0.2c0.2-0.1,0.3-0.3,0.3-0.5c0,0,0,0,0,0C190.6,26.2,190.6,26.1,190.6,25.9
	C190.6,25.9,190.6,25.9,190.6,25.9"/>
<path class="st0" d="M164,13.1c-0.7,0-1.2,0.5-1.2,1.2v8.5v0.1v3c0,0.3,0.1,0.6,0.3,0.8c0.2,0.2,0.5,0.3,0.8,0.3
	c0.3,0,0.6-0.1,0.8-0.3s0.4-0.5,0.4-0.8v-3v-0.1v-8.5C165.2,13.7,164.7,13.1,164,13.1z"/>
<path class="st1" d="M70.9,23c-1.2-1.3-1.7-2.9-1.7-5s0.6-3.7,1.7-5c0.6-0.6,1.3-1.1,2.2-1.5c0.5-0.2,0.9-0.3,1.4-0.4
	c0.5-0.1,1-0.6,1-1.1v0c0-0.7-0.6-1.2-1.3-1.1c-1.9,0.3-3.5,1.1-4.8,2.4c-1.7,1.7-2.6,4-2.6,6.8s0.9,5.1,2.6,6.8
	c0.8,0.8,1.8,1.4,2.9,1.9c0.6,0.2,1.2,0.4,1.9,0.5c0.7,0.1,1.3-0.4,1.3-1.1v0c0-0.6-0.4-1-0.9-1.1C73,24.6,71.8,24,70.9,23z"/>
<path class="st0" d="M72.2,24.1C72.2,24.1,72.2,24,72.2,24.1L72.2,24.1c-0.7,0-1.2,0.6-1.2,1.2c0,0.4,0.2,0.7,0.4,1l0,0l0.7,0.3
	c0,0,0,0,0,0c1.1,0.4,2.3,0.6,3.6,0.6s2.4-0.2,3.3-0.5c0.9-0.3,1.8-0.7,2.6-1.1c0.4-0.2,0.6-0.5,0.6-1c0-0.3-0.1-0.5-0.3-0.7
	c-0.2-0.2-0.4-0.3-0.6-0.3c-0.3,0-0.4,0-0.6,0.1c-0.7,0.4-1.4,0.7-2.1,0.9C78,24.9,77.1,25,76.1,25c-1,0-2-0.2-2.8-0.5L72.2,24.1z"
	/>
<path class="st1" d="M24.4,27L24.4,27c-0.6,0-1.2-0.5-1.2-1.2V10.1c0-0.6,0.5-1.2,1.2-1.2h0c0.6,0,1.2,0.5,1.2,1.2v15.8
	C25.6,26.5,25,27,24.4,27z"/>
<path class="st0" d="M35,17.9L35,17.9c0,0.6-0.5,1.1-1.1,1.1l-9.6,0c-0.6,0-1.1-0.5-1.1-1.1v0c0-0.6,0.5-1.1,1.1-1.1l9.6,0
	C34.5,16.8,35,17.3,35,17.9z"/>
<path class="st0" d="M2.4,18.9v-2.1v-5.6V8.9H1.2C0.8,8.9,0.6,9,0.3,9.2C0.1,9.5,0,9.8,0,10.1v15.8c0,0.3,0.1,0.6,0.3,0.8
	C0.6,26.9,0.8,27,1.2,27h1.2v-2.2V18.9z"/>
<path class="st2" d="M202.9,3.3L202.9,3.3c0,0.5,0.4,0.9,0.9,0.9c1.8,0.2,4.5,1.2,4.8,5.6c0,0.5,0.5,0.9,1,0.9c0,0,0,0,0.1,0
	c0.6,0,1-0.5,0.9-1.1c-0.3-5.2-3.4-7.2-6.6-7.5C203.3,2.2,202.8,2.7,202.9,3.3z"/>
<path class="st3" d="M206.8,1L206.8,1c-0.2,0.5,0,1,0.4,1.2c1.5,1,3.5,3.1,1.8,7.2c-0.2,0.5,0,1.1,0.5,1.3c0.1,0.1,0.3,0.1,0.4,0.1
	c0.4,0,0.8-0.2,0.9-0.6c2.1-4.7,0.2-8-2.5-9.7C207.7,0.2,207.1,0.4,206.8,1z"/>
<path class="st4" d="M203.8,6.4L203.8,6.4c0,0.5,0.4,0.9,0.9,0.9c1,0.2,2.1,0.8,2.5,2.6c0.1,0.5,0.5,0.8,1,0.8c0.1,0,0.1,0,0.2,0
	c0.5-0.1,0.9-0.6,0.8-1.2c-0.5-2.6-2.3-3.8-4.1-4.2C204.4,5.2,203.8,5.7,203.8,6.4z"/>
<path class="st0" d="M100.7,20.2l-3.5-8.4l-0.6-1.4c-0.2-0.6,0.1-1.3,0.7-1.5v0c0.6-0.2,1.2,0.1,1.4,0.6l0.1,0.3l6.6,15.6
	c0.1,0.2,0.1,0.4,0.1,0.7s-0.1,0.5-0.3,0.7c-0.2,0.2-0.5,0.3-1,0.3s-0.8-0.2-1-0.7l-1.7-4.1"/>
<path class="st3" d="M209.5,26.1c0,0.7-0.6,1.2-1.2,1.1c-2.2-0.2-4-1.1-5.4-2.6c-1.6-1.7-2.5-4-2.5-6.7c0-2.7,0.9-5,2.5-6.7
	c1.6-1.7,3.8-2.6,6.6-2.6l1.2,0.3c0.6,0,1.1,0.2,1.1,0.8v0c0,0.6-0.5,1.1-1.1,1.1h-1.2c-2.1,0-3.8,0.7-5,2.1c-1.2,1.3-1.8,3-1.8,5.1
	c0,2.1,0.6,3.7,1.8,5.1c1,1.2,2.4,1.8,4,2C209.1,25.1,209.5,25.5,209.5,26.1L209.5,26.1z"/>
<circle class="st5" cx="208.7" cy="15.8" r="1.3"/>
<linearGradient id="SVGID_1_" gradientUnits="userSpaceOnUse" x1="213.6608" y1="20.4305" x2="237.1774" y2="16.6395">
	<stop  offset="1.322115e-03" style="stop-color:#F49331"/>
	<stop  offset="1" style="stop-color:#F49331"/>
</linearGradient>
<path class="st6" d="M223.4,21.8h-7.5c-1.3,0-2.3-1.1-2.3-2.3s1.1-2.3,2.3-2.3h20.5c0.6,0,1,0.4,1,1s-0.4,1-1,1h-20.5
	c-0.2,0-0.3,0.2-0.3,0.3s0.2,0.3,0.3,0.3h7.5c0.6,0,1,0.4,1,1S223.9,21.8,223.4,21.8z"/>
<path class="st7" d="M215.5,13.9c-0.4,0-0.7-0.2-0.9-0.5c-1.5-2.9-5-2.6-5-2.6c-0.6,0.1-1-0.3-1.1-0.9s0.3-1,0.9-1.1
	c0.2,0,4.8-0.5,7,3.6c0.3,0.5,0.1,1.1-0.4,1.4C215.8,13.9,215.7,13.9,215.5,13.9z"/>
<path class="st0" d="M47.8,23C46.6,21.7,46,20,46,18s0.6-3.7,1.7-5c0.6-0.6,1.3-1.1,2.2-1.5c0.5-0.2,0.9-0.3,1.4-0.4
	c0.5-0.1,1-0.6,1-1.1v0c0-0.7-0.6-1.2-1.3-1.1c-1.9,0.3-3.5,1.1-4.8,2.4c-1.7,1.7-2.6,4-2.6,6.8s0.9,5.1,2.6,6.8
	c0.8,0.8,1.8,1.4,2.9,1.9c0.6,0.2,1.2,0.4,1.9,0.5c0.7,0.1,1.3-0.4,1.3-1.1v0c0-0.6-0.4-1-0.9-1.1C49.9,24.6,48.7,24,47.8,23z"/>
<path class="st1" d="M58.8,10.1c-0.1-0.2-0.4-0.3-0.9-0.6c-0.5-0.2-1.2-0.5-2.2-0.7c-0.9-0.2-2.1-0.3-3.3-0.2
	C51.1,8.6,50,8.9,49,9.4c0.1,0,0.2-0.1,0.3-0.1c0,0,0,0,0,0c-0.6,0.1-1.1,0.6-1.1,1.2c0,0.6,0.6,1.1,1.3,1.1c0.1,0,0.2,0,0.3-0.1
	l0,0c0.8-0.4,1.8-0.6,2.9-0.7s2,0,2.7,0.1c0.7,0.2,1.5,0.4,2.2,0.7c0.1,0.1,0.3,0.1,0.6,0.1c0.3,0,0.5-0.1,0.6-0.3
	c0.2-0.2,0.2-0.4,0.2-0.7C58.9,10.4,58.9,10.2,58.8,10.1z"/>
<path class="st0" d="M142.6,23c-1.2-1.3-1.7-2.9-1.7-5s0.6-3.7,1.7-5c0.6-0.6,1.3-1.1,2.2-1.5c0.5-0.2,0.9-0.3,1.4-0.4
	c0.5-0.1,1-0.6,1-1.1v0c0-0.7-0.6-1.2-1.3-1.1c-1.9,0.3-3.5,1.1-4.8,2.4c-1.7,1.7-2.6,4-2.6,6.8s0.9,5.1,2.6,6.8
	c0.8,0.8,1.8,1.4,2.9,1.9c0.6,0.2,1.2,0.4,1.9,0.5c0.7,0.1,1.3-0.4,1.3-1.1v0c0-0.6-0.4-1-0.9-1.1C144.7,24.6,143.5,24,142.6,23z"/>
<path class="st1" d="M153.6,10.1c-0.1-0.2-0.4-0.3-0.9-0.6c-0.5-0.2-1.2-0.5-2.2-0.7c-0.9-0.2-2.1-0.3-3.3-0.2
	c-1.2,0.1-2.3,0.4-3.3,0.8c0.1,0,0.2-0.1,0.3-0.1c0,0,0,0,0,0c-0.6,0.1-1.1,0.6-1.1,1.2c0,0.6,0.6,1.1,1.3,1.1c0.1,0,0.2,0,0.3-0.1
	l0,0c0.8-0.4,1.8-0.6,2.9-0.7c1.1-0.1,2,0,2.7,0.1c0.7,0.2,1.5,0.4,2.2,0.7c0.1,0.1,0.3,0.1,0.6,0.1c0.3,0,0.5-0.1,0.6-0.3
	c0.2-0.2,0.2-0.4,0.2-0.7C153.8,10.4,153.7,10.2,153.6,10.1z"/>
<path class="st0" d="M120.8,24.1C120.8,24.1,120.8,24,120.8,24.1L120.8,24.1c-0.7,0-1.2,0.6-1.2,1.2c0,0.4,0.2,0.7,0.4,1l0,0
	l0.7,0.3c0,0,0,0,0,0c1.1,0.4,2.3,0.6,3.6,0.6s2.4-0.2,3.3-0.5c0.9-0.3,1.8-0.7,2.6-1.1c0.4-0.2,0.6-0.5,0.6-1
	c0-0.3-0.1-0.5-0.3-0.7c-0.2-0.2-0.4-0.3-0.6-0.3c-0.3,0-0.4,0-0.6,0.1c-0.7,0.4-1.4,0.7-2.1,0.9c-0.7,0.2-1.6,0.3-2.6,0.3
	c-1,0-2-0.2-2.8-0.5L120.8,24.1z"/>
<path class="st1" d="M130.5,10.1c-0.1-0.2-0.4-0.3-0.9-0.6c-0.5-0.2-1.2-0.5-2.2-0.7c-0.9-0.2-2.1-0.3-3.3-0.2
	c-1.2,0.1-2.3,0.4-3.3,0.8c0.1,0,0.2-0.1,0.3-0.1c0,0,0,0,0,0c-0.6,0.1-1.1,0.6-1.1,1.2c0,0.6,0.6,1.1,1.3,1.1c0.1,0,0.2,0,0.3-0.1
	l0,0c0.8-0.4,1.8-0.6,2.9-0.7c1.1-0.1,2,0,2.7,0.1c0.7,0.2,1.5,0.4,2.2,0.7c0.1,0.1,0.3,0.1,0.6,0.1c0.3,0,0.5-0.1,0.6-0.3
	c0.2-0.2,0.2-0.4,0.2-0.7C130.7,10.4,130.6,10.2,130.5,10.1z"/>
<path class="st1" d="M102.6,22.4h-9.8c-0.5,0-1-0.4-1-1v-0.2c0-0.5,0.4-1,1-1h9.8c0.5,0,1,0.4,1,1v0.2
	C103.6,21.9,103.2,22.4,102.6,22.4z"/>
<g>
	<path class="st8" d="M176.2,8.8L176.2,8.8c-0.7,0-1.2,0.5-1.2,1.2v16c0,0.7,0.5,1.2,1.2,1.2l0,0c0.7,0,1.2-0.5,1.2-1.2v-16
		C177.4,9.3,176.8,8.8,176.2,8.8z"/>
	<path class="st8" d="M164,18.1c-0.7,0-1.2-0.5-1.2-1.2v-7c0-0.3,0.1-0.6,0.3-0.8c0.2-0.2,0.5-0.4,0.8-0.4c0.3,0,0.6,0.1,0.8,0.4
		s0.4,0.5,0.4,0.8v7C165.2,17.6,164.7,18.1,164,18.1L164,18.1z"/>
	<path class="st8" d="M81.9,10.1c-0.1-0.2-0.4-0.3-0.9-0.6c-0.5-0.2-1.2-0.5-2.2-0.7c-0.9-0.2-2.1-0.3-3.3-0.2
		c-1.2,0.1-2.3,0.4-3.3,0.8c0.1,0,0.2-0.1,0.3-0.1c0,0,0,0,0,0c-0.6,0.1-1.1,0.6-1.1,1.2c0,0.6,0.6,1.1,1.3,1.1c0.1,0,0.2,0,0.3-0.1
		l0,0c0.8-0.4,1.8-0.6,2.9-0.7c1.1-0.1,2,0,2.7,0.1c0.7,0.2,1.5,0.4,2.2,0.7c0.1,0.1,0.3,0.1,0.6,0.1c0.3,0,0.5-0.1,0.6-0.3
		c0.2-0.2,0.2-0.4,0.2-0.7C82,10.4,82,10.2,81.9,10.1z"/>
	<path class="st8" d="M35.9,10L35.9,10c0,0.6-0.5,1.1-1.1,1.1H24.3c-0.6,0-1.1-0.5-1.1-1.1v0c0-0.6,0.5-1.1,1.1-1.1h10.5
		C35.4,8.9,35.9,9.4,35.9,10z"/>
	<path class="st8" d="M35.9,25.9L35.9,25.9c0,0.6-0.5,1.1-1.1,1.1H24.3c-0.6,0-1.1-0.5-1.1-1.1v0c0-0.6,0.5-1.1,1.1-1.1h10.5
		C35.4,24.8,35.9,25.3,35.9,25.9z"/>
	<path class="st8" d="M93.8,22.3l-1.7,4.1c-0.2,0.5-0.5,0.7-1,0.7s-0.8-0.1-1-0.3c-0.2-0.2-0.3-0.5-0.3-0.7s0-0.5,0.1-0.7l6.6-15.6
		l0.1-0.3c0.2-0.6,0.9-0.8,1.4-0.6v0c0.6,0.2,0.9,0.9,0.7,1.5l-0.6,1.4l-3.5,8.4"/>
	<path class="st8" d="M49.1,24.1C49.1,24.1,49.1,24,49.1,24.1L49.1,24.1c-0.7,0-1.2,0.6-1.2,1.2c0,0.4,0.2,0.7,0.4,1l0,0l0.7,0.3
		c0,0,0,0,0,0c1.1,0.4,2.3,0.6,3.6,0.6s2.4-0.2,3.3-0.5c0.9-0.3,1.8-0.7,2.6-1.1c0.4-0.2,0.6-0.5,0.6-1c0-0.3-0.1-0.5-0.3-0.7
		c-0.2-0.2-0.4-0.3-0.6-0.3c-0.3,0-0.4,0-0.6,0.1c-0.7,0.4-1.4,0.7-2.1,0.9C54.9,24.9,54,25,53,25c-1,0-2-0.2-2.8-0.5L49.1,24.1z"/>
	<path class="st8" d="M143.9,24.1C143.9,24.1,143.9,24,143.9,24.1L143.9,24.1c-0.7,0-1.2,0.6-1.2,1.2c0,0.4,0.2,0.7,0.4,1l0,0
		l0.7,0.3c0,0,0,0,0,0c1.1,0.4,2.3,0.6,3.6,0.6s2.4-0.2,3.3-0.5c0.9-0.3,1.8-0.7,2.6-1.1c0.4-0.2,0.6-0.5,0.6-1
		c0-0.3-0.1-0.5-0.3-0.7c-0.2-0.2-0.4-0.3-0.6-0.3c-0.3,0-0.4,0-0.6,0.1c-0.7,0.4-1.4,0.7-2.1,0.9c-0.7,0.2-1.6,0.3-2.6,0.3
		c-1,0-2-0.2-2.8-0.5L143.9,24.1z"/>
	<path class="st8" d="M119.5,23c-1.2-1.3-1.7-2.9-1.7-5s0.6-3.7,1.7-5c0.6-0.6,1.3-1.1,2.2-1.5c0.5-0.2,0.9-0.3,1.4-0.4
		c0.5-0.1,1-0.6,1-1.1v0c0-0.7-0.6-1.2-1.3-1.1c-1.9,0.3-3.5,1.1-4.8,2.4c-1.7,1.7-2.6,4-2.6,6.8s0.9,5.1,2.6,6.8
		c0.8,0.8,1.8,1.4,2.9,1.9c0.6,0.2,1.2,0.4,1.9,0.5c0.7,0.1,1.3-0.4,1.3-1.1v0c0-0.6-0.4-1-0.9-1.1C121.6,24.6,120.4,24,119.5,23z"
		/>
	<path class="st8" d="M9.5,18.8H1.1c-0.6,0-1.1-0.5-1.1-1.1v0c0-0.6,0.5-1.1,1.1-1.1h8.4c0.6,0,1.1,0.5,1.1,1.1v0
		C10.6,18.4,10.1,18.8,9.5,18.8z"/>
</g>
<path class="st1" d="M13.8,20.3c-0.5-1.3-1.6-2.2-3.3-2.7c1.7-0.8,2.5-2.1,2.5-4c0-1.4-0.5-2.5-1.5-3.4C10.8,9.4,9.5,9,7.9,8.9v0
	H1.1C0.5,8.9,0,9.4,0,10c0,0.6,0.5,1.1,1.1,1.1h6.2v0c1.1,0,2,0.3,2.6,0.7c0.6,0.5,1,1.1,1,1.9c0,0.4-0.1,0.8-0.2,1.2
	c-0.3,0.9-1.1,1.4-2.4,1.7c-0.6,0.1-1,0.6-1,1.1c0,0.6,0.5,1.1,1.1,1.2c1,0.1,1.8,0.3,2.3,0.7c0.8,0.5,1.2,1.2,1.2,2.3
	c0,0.5-0.1,0.9-0.2,1.2c-0.5,1.2-1.9,1.8-4.4,1.8v0H1.1c-0.6,0-1.1,0.5-1.1,1.1S0.5,27,1.1,27h6.2h0.2h0.5v0
	c2.1-0.1,3.6-0.5,4.6-1.4c0.5-0.5,0.9-1,1.2-1.6c0.2-0.6,0.4-1.3,0.4-1.9C14.1,21.4,14,20.8,13.8,20.3z"/>
<path class="st9" d="M218.2,52.6c-1.8,0-3.5-0.4-5.2-1.1c-2.8-1.2-5-3.3-6.4-5.9l-8.1-1.5c-0.4-0.1-0.7-0.4-0.8-0.8
	c-0.1-0.4,0.1-0.8,0.4-1l7.5-4.9c0.5-0.3,1.1-0.2,1.4,0.3c0.3,0.5,0.2,1.1-0.3,1.4l-5.4,3.5l6.2,1.1c0.3,0.1,0.6,0.3,0.7,0.5
	c1.2,2.4,3.2,4.3,5.6,5.4c5.7,2.4,12.2-0.2,14.7-5.8c1.2-2.7,1.2-5.8,0.1-8.5c-1.1-2.8-3.2-5-6-6.1c-0.5-0.2-0.7-0.8-0.5-1.3
	c0.2-0.5,0.8-0.7,1.3-0.5c3.2,1.4,5.7,4,7,7.2c1.3,3.3,1.2,6.8-0.2,10.1c-1.4,3.2-4,5.7-7.2,7C221.5,52.3,219.9,52.6,218.2,52.6z"/>
<g class="st10">
	<path class="st5" d="M115.8,38.7l-0.4,0c-0.2,0-0.4,0-0.5,0.1s-0.2,0.3-0.2,0.6v0.4h1c0.1,0,0.2,0,0.2,0.1s0.1,0.1,0.1,0.2
		c0,0.1,0,0.2-0.1,0.2s-0.1,0.1-0.2,0.1h-1v3.1c0,0.1,0,0.2-0.1,0.3c-0.1,0.1-0.2,0.1-0.3,0.1c-0.1,0-0.2,0-0.3-0.1
		c-0.1-0.1-0.1-0.2-0.1-0.3v-3.1h-0.5c-0.1,0-0.2,0-0.2-0.1s-0.1-0.1-0.1-0.2c0-0.1,0-0.2,0.1-0.2s0.1-0.1,0.2-0.1h0.5v-0.5
		c0-0.5,0.1-0.8,0.4-1.1c0.2-0.2,0.5-0.3,0.8-0.3c0.3,0,0.5,0.1,0.7,0.2c0.1,0.1,0.2,0.2,0.2,0.2c0,0.1,0,0.2-0.1,0.2
		C115.9,38.6,115.9,38.7,115.8,38.7z"/>
	<path class="st5" d="M118.9,39.7c0.6,0,1.1,0.2,1.5,0.6c0.4,0.4,0.6,0.9,0.6,1.5c0,0.6-0.2,1.1-0.6,1.5c-0.4,0.4-0.9,0.6-1.5,0.6
		c-0.6,0-1.1-0.2-1.5-0.6c-0.4-0.4-0.6-0.9-0.6-1.5s0.2-1.1,0.6-1.5C117.7,39.9,118.2,39.7,118.9,39.7z M118,42.9
		c0.1,0.1,0.3,0.2,0.4,0.3c0.2,0.1,0.3,0.1,0.5,0.1c0.2,0,0.3,0,0.5-0.1c0.2-0.1,0.3-0.1,0.4-0.2c0.3-0.3,0.4-0.6,0.4-1.1
		c0-0.5-0.1-0.9-0.4-1.1c-0.2-0.2-0.5-0.3-0.9-0.3c-0.6,0-1,0.3-1.2,0.8c-0.1,0.2-0.1,0.4-0.1,0.7s0,0.5,0.1,0.7
		C117.7,42.7,117.8,42.8,118,42.9z"/>
	<path class="st5" d="M123.1,40.4c0.4-0.5,0.8-0.8,1.3-0.8h0c0.1,0,0.2,0,0.3,0.1c0.1,0.1,0.1,0.2,0.1,0.3c0,0.1,0,0.2-0.1,0.2
		s-0.2,0.1-0.3,0.1h0c-0.3,0-0.5,0.1-0.7,0.2s-0.4,0.3-0.5,0.5v2.4c0,0.1,0,0.2-0.1,0.3c-0.1,0.1-0.2,0.1-0.3,0.1
		c-0.1,0-0.2,0-0.3-0.1c-0.1-0.1-0.1-0.2-0.1-0.3v-3.4c0-0.1,0-0.2,0.1-0.3c0.1-0.1,0.2-0.1,0.3-0.1c0.1,0,0.2,0,0.3,0.1
		c0.1,0.1,0.1,0.2,0.1,0.3V40.4z"/>
	<path class="st5" d="M129,40.3c0.4-0.4,0.9-0.6,1.4-0.6c0.5,0,1,0.2,1.3,0.6c0.4,0.4,0.6,0.9,0.6,1.6c0,0.7-0.2,1.2-0.6,1.6
		c-0.4,0.4-0.8,0.5-1.3,0.5s-1-0.2-1.4-0.6v0.2c0,0.1,0,0.2-0.1,0.3c-0.1,0.1-0.2,0.1-0.3,0.1c-0.1,0-0.2,0-0.3-0.1
		c-0.1-0.1-0.1-0.2-0.1-0.3v-5.2c0-0.1,0-0.2,0.1-0.3s0.2-0.1,0.3-0.1c0.1,0,0.2,0,0.3,0.1s0.1,0.2,0.1,0.3V40.3z M129,42.7
		c0.4,0.4,0.8,0.6,1.3,0.6c0.6,0,1-0.3,1.2-0.8c0.1-0.2,0.1-0.4,0.1-0.6c0-0.5-0.1-0.8-0.4-1.1c-0.2-0.2-0.5-0.4-0.9-0.4
		c-0.5,0-0.9,0.2-1.3,0.6V42.7z"/>
	<path class="st5" d="M134.7,42.9c0.2,0.2,0.5,0.3,1,0.3c0.4,0,0.8-0.1,1-0.2c0.1,0,0.2-0.1,0.2-0.1s0.1,0,0.2,0.1
		c0.1,0.1,0.1,0.1,0.1,0.2c0,0.1-0.1,0.2-0.2,0.3c-0.1,0.1-0.2,0.1-0.3,0.2s-0.2,0.1-0.3,0.1c-0.2,0.1-0.5,0.1-0.8,0.1
		c-0.7,0-1.2-0.2-1.5-0.6c-0.4-0.4-0.5-0.9-0.5-1.6c0-0.6,0.2-1.1,0.5-1.5c0.3-0.4,0.8-0.7,1.5-0.7c0.6,0,1.1,0.2,1.4,0.6
		c0.3,0.4,0.5,0.8,0.5,1.4c0,0.1,0,0.2-0.1,0.3c-0.1,0.1-0.2,0.1-0.3,0.1h-2.7C134.3,42.4,134.4,42.7,134.7,42.9z M135.4,40.3
		c-0.5,0-0.8,0.2-1,0.6c-0.1,0.1-0.1,0.3-0.1,0.5h2.4c0-0.4-0.2-0.7-0.4-0.9C136,40.4,135.7,40.3,135.4,40.3z"/>
	<path class="st5" d="M140.2,43.3c0.1,0,0.2,0,0.3,0c0.1,0,0.1,0,0.2,0s0.1,0,0.2,0.1c0.1,0.1,0.1,0.1,0.1,0.2
		c0,0.1-0.1,0.2-0.2,0.2c-0.2,0.1-0.4,0.2-0.6,0.2c-0.2,0-0.3,0-0.4,0c-0.1,0-0.3-0.1-0.4-0.1c-0.3-0.2-0.4-0.5-0.4-0.9v-2.5h-0.6
		c-0.1,0-0.2-0.1-0.2-0.2c0,0,0-0.1,0.1-0.1l1.1-1.1c0,0,0.1-0.1,0.1-0.1c0,0,0.1,0,0.1,0s0,0.1,0,0.1v0.6h0.9c0.1,0,0.2,0,0.2,0.1
		s0.1,0.1,0.1,0.2c0,0.1,0,0.2-0.1,0.2s-0.1,0.1-0.2,0.1h-0.9v2.4c0,0.2,0.1,0.3,0.2,0.4C140,43.3,140.1,43.3,140.2,43.3z"/>
	<path class="st5" d="M143.7,43.3c0.1,0,0.2,0,0.3,0c0.1,0,0.1,0,0.2,0s0.1,0,0.2,0.1c0.1,0.1,0.1,0.1,0.1,0.2
		c0,0.1-0.1,0.2-0.2,0.2c-0.2,0.1-0.4,0.2-0.6,0.2c-0.2,0-0.3,0-0.4,0c-0.1,0-0.3-0.1-0.4-0.1c-0.3-0.2-0.4-0.5-0.4-0.9v-2.5h-0.6
		c-0.1,0-0.2-0.1-0.2-0.2c0,0,0-0.1,0.1-0.1l1.1-1.1c0,0,0.1-0.1,0.1-0.1c0,0,0.1,0,0.1,0s0,0.1,0,0.1v0.6h0.9c0.1,0,0.2,0,0.2,0.1
		s0.1,0.1,0.1,0.2c0,0.1,0,0.2-0.1,0.2s-0.1,0.1-0.2,0.1h-0.9v2.4c0,0.2,0.1,0.3,0.2,0.4C143.5,43.3,143.6,43.3,143.7,43.3z"/>
	<path class="st5" d="M146.6,42.9c0.2,0.2,0.5,0.3,1,0.3c0.4,0,0.8-0.1,1-0.2c0.1,0,0.2-0.1,0.2-0.1s0.1,0,0.2,0.1
		c0.1,0.1,0.1,0.1,0.1,0.2c0,0.1-0.1,0.2-0.2,0.3c-0.1,0.1-0.2,0.1-0.3,0.2s-0.2,0.1-0.3,0.1c-0.2,0.1-0.5,0.1-0.8,0.1
		c-0.7,0-1.2-0.2-1.5-0.6c-0.4-0.4-0.5-0.9-0.5-1.6c0-0.6,0.2-1.1,0.5-1.5c0.3-0.4,0.8-0.7,1.5-0.7c0.6,0,1.1,0.2,1.4,0.6
		c0.3,0.4,0.5,0.8,0.5,1.4c0,0.1,0,0.2-0.1,0.3c-0.1,0.1-0.2,0.1-0.3,0.1h-2.7C146.2,42.4,146.4,42.7,146.6,42.9z M147.4,40.3
		c-0.5,0-0.8,0.2-1,0.6c-0.1,0.1-0.1,0.3-0.1,0.5h2.4c0-0.4-0.2-0.7-0.4-0.9C147.9,40.4,147.7,40.3,147.4,40.3z"/>
	<path class="st5" d="M151.4,40.4c0.4-0.5,0.8-0.8,1.3-0.8h0c0.1,0,0.2,0,0.3,0.1c0.1,0.1,0.1,0.2,0.1,0.3c0,0.1,0,0.2-0.1,0.2
		s-0.2,0.1-0.3,0.1h0c-0.3,0-0.5,0.1-0.7,0.2s-0.4,0.3-0.5,0.5v2.4c0,0.1,0,0.2-0.1,0.3c-0.1,0.1-0.2,0.1-0.3,0.1
		c-0.1,0-0.2,0-0.3-0.1c-0.1-0.1-0.1-0.2-0.1-0.3v-3.4c0-0.1,0-0.2,0.1-0.3c0.1-0.1,0.2-0.1,0.3-0.1c0.1,0,0.2,0,0.3,0.1
		c0.1,0.1,0.1,0.2,0.1,0.3V40.4z"/>
	<path class="st5" d="M161.3,43.4c0,0.1,0,0.1,0,0.2c0,0.1,0,0.1-0.1,0.2c-0.1,0.1-0.2,0.1-0.3,0.1s-0.2-0.1-0.3-0.2l-0.5-1.2h-2.7
		l-0.5,1.2c-0.1,0.1-0.2,0.2-0.3,0.2s-0.2,0-0.3-0.1c-0.1-0.1-0.1-0.1-0.1-0.2c0-0.1,0-0.1,0-0.2l2-4.8c0.1-0.2,0.3-0.3,0.5-0.3h0.1
		c0.2,0,0.4,0.1,0.5,0.3L161.3,43.4z M159.9,41.8l-1.1-2.6l-1.1,2.6H159.9z"/>
	<path class="st5" d="M164.9,38.3c0.7,0,1.3,0.2,1.7,0.6c0.3,0.3,0.5,0.7,0.5,1.2c0,0.5-0.2,0.9-0.5,1.2c-0.4,0.4-0.9,0.6-1.7,0.6
		h-1.5v1.7c0,0.1,0,0.2-0.1,0.3c-0.1,0.1-0.2,0.1-0.3,0.1s-0.2,0-0.3-0.1c-0.1-0.1-0.1-0.2-0.1-0.3v-4.9c0-0.1,0-0.2,0.1-0.3
		c0.1-0.1,0.2-0.1,0.3-0.1H164.9z M164.9,41.1c0.5,0,0.9-0.1,1.2-0.4c0.2-0.2,0.3-0.4,0.3-0.7c0-0.5-0.2-0.8-0.7-1
		c-0.2-0.1-0.4-0.1-0.7-0.1h-1.4v2.2H164.9z"/>
	<path class="st5" d="M168.9,38.2c0.1,0,0.2,0,0.3,0.1c0.1,0.1,0.1,0.2,0.1,0.3v4.9c0,0.1,0,0.2-0.1,0.3c-0.1,0.1-0.2,0.1-0.3,0.1
		s-0.2,0-0.3-0.1c-0.1-0.1-0.1-0.2-0.1-0.3v-4.9c0-0.1,0-0.2,0.1-0.3C168.7,38.3,168.8,38.2,168.9,38.2z"/>
	<path class="st5" d="M175.5,43.3c0.3,0,0.6-0.1,0.9-0.2c0.1-0.1,0.2-0.1,0.3-0.1c0.1,0,0.1,0,0.2,0.1s0.1,0.2,0.1,0.2
		c0,0.1-0.1,0.2-0.2,0.3c-0.4,0.2-0.8,0.4-1.3,0.4c-0.6,0-1.1-0.2-1.5-0.6c-0.4-0.4-0.6-0.9-0.6-1.6s0.2-1.2,0.6-1.6
		c0.4-0.4,0.9-0.6,1.5-0.6c0.3,0,0.6,0,0.8,0.1c0.2,0.1,0.4,0.2,0.5,0.2c0.1,0.1,0.2,0.2,0.2,0.3c0,0.1,0,0.2-0.1,0.2
		s-0.1,0.1-0.2,0.1c-0.1,0-0.2,0-0.3-0.1c-0.3-0.1-0.6-0.2-0.9-0.2c-0.5,0-0.8,0.1-1.1,0.4c-0.3,0.3-0.4,0.6-0.4,1s0.1,0.8,0.4,1
		C174.6,43.1,175,43.3,175.5,43.3z"/>
	<path class="st5" d="M178.4,40c0.4-0.2,0.9-0.3,1.4-0.3c0.5,0,1,0.2,1.3,0.5c0.3,0.3,0.4,0.6,0.4,1.1v2.3c0,0.1,0,0.2-0.1,0.3
		c-0.1,0.1-0.2,0.1-0.3,0.1c-0.1,0-0.2,0-0.3-0.1c-0.1-0.1-0.1-0.2-0.1-0.3v-0.2c-0.1,0.1-0.3,0.3-0.6,0.4c-0.2,0.1-0.6,0.2-0.9,0.2
		c-0.4,0-0.7-0.1-0.9-0.3c-0.3-0.2-0.4-0.5-0.4-0.9c0-0.4,0.1-0.7,0.4-0.9c0.3-0.2,0.8-0.4,1.4-0.4h1v-0.1c0-0.4-0.1-0.6-0.3-0.8
		c-0.2-0.2-0.4-0.2-0.8-0.2c-0.3,0-0.7,0.1-1.1,0.2c0,0-0.1,0-0.1,0c-0.1,0-0.1,0-0.2-0.1c-0.1-0.1-0.1-0.1-0.1-0.3
		C178.2,40.1,178.2,40,178.4,40z M178.6,42.7c0,0.4,0.3,0.6,0.8,0.6c0.3,0,0.5-0.1,0.7-0.2c0.2-0.1,0.4-0.3,0.5-0.4V42h-0.9
		c-0.4,0-0.7,0-0.9,0.1C178.7,42.3,178.6,42.4,178.6,42.7z"/>
	<path class="st5" d="M183.2,38.1c0.1-0.1,0.2-0.1,0.3-0.1c0.1,0,0.2,0,0.3,0.1s0.1,0.2,0.1,0.3v5.2c0,0.1,0,0.2-0.1,0.3
		c-0.1,0.1-0.2,0.1-0.3,0.1c-0.1,0-0.2,0-0.3-0.1c-0.1-0.1-0.1-0.2-0.1-0.3v-5.2C183.1,38.2,183.2,38.1,183.2,38.1z"/>
	<path class="st5" d="M185.7,38.1c0.1-0.1,0.2-0.1,0.3-0.1c0.1,0,0.2,0,0.3,0.1s0.1,0.2,0.1,0.3v5.2c0,0.1,0,0.2-0.1,0.3
		c-0.1,0.1-0.2,0.1-0.3,0.1c-0.1,0-0.2,0-0.3-0.1c-0.1-0.1-0.1-0.2-0.1-0.3v-5.2C185.6,38.2,185.7,38.1,185.7,38.1z"/>
	<path class="st5" d="M189.4,43.3c0.6,0,0.9-0.2,0.9-0.6c0-0.1-0.1-0.2-0.2-0.3s-0.3-0.1-0.4-0.2s-0.4-0.1-0.6-0.1s-0.4-0.1-0.6-0.2
		s-0.3-0.2-0.4-0.4c-0.1-0.1-0.2-0.3-0.2-0.5c0-0.2,0-0.4,0.1-0.6c0.1-0.2,0.2-0.3,0.3-0.4c0.3-0.2,0.7-0.4,1.2-0.4
		c0.4,0,0.8,0.1,1.2,0.2c0.1,0,0.1,0.1,0.2,0.1s0.1,0.1,0.1,0.2c0,0.1,0,0.1-0.1,0.2c-0.1,0.1-0.1,0.1-0.2,0.1s-0.1,0-0.2,0
		c-0.3-0.1-0.5-0.1-0.8-0.1s-0.5,0.1-0.7,0.2s-0.2,0.2-0.2,0.4s0.1,0.3,0.2,0.3s0.3,0.1,0.4,0.2c0.2,0,0.4,0.1,0.6,0.1
		c0.2,0,0.4,0.1,0.6,0.2c0.4,0.2,0.6,0.5,0.6,1c0,0.3-0.1,0.6-0.4,0.8c-0.3,0.2-0.7,0.4-1.2,0.4c-0.5,0-1-0.1-1.5-0.4
		c-0.1-0.1-0.1-0.1-0.1-0.2c0-0.1,0-0.2,0.1-0.2c0.1-0.1,0.1-0.1,0.2-0.1s0.2,0,0.2,0.1C188.7,43.2,189,43.3,189.4,43.3z"/>
</g>
</svg>
